<svg xmlns="http://www.w3.org/2000/svg" width="466" height="466" viewBox="0 0 466 466">
<defs>
  <radialGradient id="glow" gradientUnits="userSpaceOnUse" cx="233" cy="220" r="190">
    <stop offset="0" stop-color="#153e2e" stop-opacity=".72"/>
    <stop offset=".48" stop-color="#07100c" stop-opacity=".56"/>
    <stop offset="1" stop-color="#000000" stop-opacity="0"/>
  </radialGradient>
  <linearGradient id="divider" x1="140" y1="0" x2="326" y2="0" gradientUnits="userSpaceOnUse">
    <stop offset="0" stop-color="#63e0ac" stop-opacity="0"/>
    <stop offset=".5" stop-color="#63e0ac" stop-opacity=".5"/>
    <stop offset="1" stop-color="#63e0ac" stop-opacity="0"/>
  </linearGradient>
</defs>
<rect width="466" height="466" fill="#000"/>
<circle cx="233" cy="220" r="190" fill="url(#glow)"/>
<circle cx="233" cy="233" r="218" fill="none" stroke="#182a21"/>
<circle cx="233" cy="233" r="194" fill="none" stroke="#63e0ac" stroke-opacity=".30" stroke-width="1.2"/>
<g><line x1="233" y1="17" x2="233" y2="30" stroke="#738d80" stroke-opacity=".85" stroke-width="2" transform="rotate(0 233 233)"/>
<line x1="233" y1="20" x2="233" y2="28" stroke="#52675d" stroke-opacity=".78" stroke-width="1.4" transform="rotate(6 233 233)"/>
<line x1="233" y1="20" x2="233" y2="28" stroke="#52675d" stroke-opacity=".78" stroke-width="1.4" transform="rotate(12 233 233)"/>
<line x1="233" y1="20" x2="233" y2="28" stroke="#52675d" stroke-opacity=".78" stroke-width="1.4" transform="rotate(18 233 233)"/>
<line x1="233" y1="20" x2="233" y2="28" stroke="#52675d" stroke-opacity=".78" stroke-width="1.4" transform="rotate(24 233 233)"/>
<line x1="233" y1="17" x2="233" y2="30" stroke="#738d80" stroke-opacity=".85" stroke-width="2" transform="rotate(30 233 233)"/>
<line x1="233" y1="20" x2="233" y2="28" stroke="#52675d" stroke-opacity=".78" stroke-width="1.4" transform="rotate(36 233 233)"/>
<line x1="233" y1="20" x2="233" y2="28" stroke="#52675d" stroke-opacity=".78" stroke-width="1.4" transform="rotate(42 233 233)"/>
<line x1="233" y1="20" x2="233" y2="28" stroke="#52675d" stroke-opacity=".78" stroke-width="1.4" transform="rotate(48 233 233)"/>
<line x1="233" y1="20" x2="233" y2="28" stroke="#52675d" stroke-opacity=".78" stroke-width="1.4" transform="rotate(54 233 233)"/>
<line x1="233" y1="17" x2="233" y2="30" stroke="#738d80" stroke-opacity=".85" stroke-width="2" transform="rotate(60 233 233)"/>
<line x1="233" y1="20" x2="233" y2="28" stroke="#52675d" stroke-opacity=".78" stroke-width="1.4" transform="rotate(66 233 233)"/>
<line x1="233" y1="20" x2="233" y2="28" stroke="#52675d" stroke-opacity=".78" stroke-width="1.4" transform="rotate(72 233 233)"/>
<line x1="233" y1="20" x2="233" y2="28" stroke="#52675d" stroke-opacity=".78" stroke-width="1.4" transform="rotate(78 233 233)"/>
<line x1="233" y1="20" x2="233" y2="28" stroke="#52675d" stroke-opacity=".78" stroke-width="1.4" transform="rotate(84 233 233)"/>
<line x1="233" y1="17" x2="233" y2="30" stroke="#738d80" stroke-opacity=".85" stroke-width="2" transform="rotate(90 233 233)"/>
<line x1="233" y1="20" x2="233" y2="28" stroke="#52675d" stroke-opacity=".78" stroke-width="1.4" transform="rotate(96 233 233)"/>
<line x1="233" y1="20" x2="233" y2="28" stroke="#52675d" stroke-opacity=".78" stroke-width="1.4" transform="rotate(102 233 233)"/>
<line x1="233" y1="20" x2="233" y2="28" stroke="#52675d" stroke-opacity=".78" stroke-width="1.4" transform="rotate(108 233 233)"/>
<line x1="233" y1="20" x2="233" y2="28" stroke="#52675d" stroke-opacity=".78" stroke-width="1.4" transform="rotate(114 233 233)"/>
<line x1="233" y1="17" x2="233" y2="30" stroke="#738d80" stroke-opacity=".85" stroke-width="2" transform="rotate(120 233 233)"/>
<line x1="233" y1="20" x2="233" y2="28" stroke="#52675d" stroke-opacity=".78" stroke-width="1.4" transform="rotate(126 233 233)"/>
<line x1="233" y1="20" x2="233" y2="28" stroke="#52675d" stroke-opacity=".78" stroke-width="1.4" transform="rotate(132 233 233)"/>
<line x1="233" y1="20" x2="233" y2="28" stroke="#52675d" stroke-opacity=".78" stroke-width="1.4" transform="rotate(138 233 233)"/>
<line x1="233" y1="20" x2="233" y2="28" stroke="#52675d" stroke-opacity=".78" stroke-width="1.4" transform="rotate(144 233 233)"/>
<line x1="233" y1="17" x2="233" y2="30" stroke="#738d80" stroke-opacity=".85" stroke-width="2" transform="rotate(150 233 233)"/>
<line x1="233" y1="20" x2="233" y2="28" stroke="#52675d" stroke-opacity=".78" stroke-width="1.4" transform="rotate(156 233 233)"/>
<line x1="233" y1="20" x2="233" y2="28" stroke="#52675d" stroke-opacity=".78" stroke-width="1.4" transform="rotate(162 233 233)"/>
<line x1="233" y1="20" x2="233" y2="28" stroke="#52675d" stroke-opacity=".78" stroke-width="1.4" transform="rotate(168 233 233)"/>
<line x1="233" y1="20" x2="233" y2="28" stroke="#52675d" stroke-opacity=".78" stroke-width="1.4" transform="rotate(174 233 233)"/>
<line x1="233" y1="17" x2="233" y2="30" stroke="#738d80" stroke-opacity=".85" stroke-width="2" transform="rotate(180 233 233)"/>
<line x1="233" y1="20" x2="233" y2="28" stroke="#52675d" stroke-opacity=".78" stroke-width="1.4" transform="rotate(186 233 233)"/>
<line x1="233" y1="20" x2="233" y2="28" stroke="#52675d" stroke-opacity=".78" stroke-width="1.4" transform="rotate(192 233 233)"/>
<line x1="233" y1="20" x2="233" y2="28" stroke="#52675d" stroke-opacity=".78" stroke-width="1.4" transform="rotate(198 233 233)"/>
<line x1="233" y1="20" x2="233" y2="28" stroke="#52675d" stroke-opacity=".78" stroke-width="1.4" transform="rotate(204 233 233)"/>
<line x1="233" y1="17" x2="233" y2="30" stroke="#738d80" stroke-opacity=".85" stroke-width="2" transform="rotate(210 233 233)"/>
<line x1="233" y1="20" x2="233" y2="28" stroke="#52675d" stroke-opacity=".78" stroke-width="1.4" transform="rotate(216 233 233)"/>
<line x1="233" y1="20" x2="233" y2="28" stroke="#52675d" stroke-opacity=".78" stroke-width="1.4" transform="rotate(222 233 233)"/>
<line x1="233" y1="20" x2="233" y2="28" stroke="#52675d" stroke-opacity=".78" stroke-width="1.4" transform="rotate(228 233 233)"/>
<line x1="233" y1="20" x2="233" y2="28" stroke="#52675d" stroke-opacity=".78" stroke-width="1.4" transform="rotate(234 233 233)"/>
<line x1="233" y1="17" x2="233" y2="30" stroke="#738d80" stroke-opacity=".85" stroke-width="2" transform="rotate(240 233 233)"/>
<line x1="233" y1="20" x2="233" y2="28" stroke="#52675d" stroke-opacity=".78" stroke-width="1.4" transform="rotate(246 233 233)"/>
<line x1="233" y1="20" x2="233" y2="28" stroke="#52675d" stroke-opacity=".78" stroke-width="1.4" transform="rotate(252 233 233)"/>
<line x1="233" y1="20" x2="233" y2="28" stroke="#52675d" stroke-opacity=".78" stroke-width="1.4" transform="rotate(258 233 233)"/>
<line x1="233" y1="20" x2="233" y2="28" stroke="#52675d" stroke-opacity=".78" stroke-width="1.4" transform="rotate(264 233 233)"/>
<line x1="233" y1="17" x2="233" y2="30" stroke="#738d80" stroke-opacity=".85" stroke-width="2" transform="rotate(270 233 233)"/>
<line x1="233" y1="20" x2="233" y2="28" stroke="#52675d" stroke-opacity=".78" stroke-width="1.4" transform="rotate(276 233 233)"/>
<line x1="233" y1="20" x2="233" y2="28" stroke="#52675d" stroke-opacity=".78" stroke-width="1.4" transform="rotate(282 233 233)"/>
<line x1="233" y1="20" x2="233" y2="28" stroke="#52675d" stroke-opacity=".78" stroke-width="1.4" transform="rotate(288 233 233)"/>
<line x1="233" y1="20" x2="233" y2="28" stroke="#52675d" stroke-opacity=".78" stroke-width="1.4" transform="rotate(294 233 233)"/>
<line x1="233" y1="17" x2="233" y2="30" stroke="#738d80" stroke-opacity=".85" stroke-width="2" transform="rotate(300 233 233)"/>
<line x1="233" y1="20" x2="233" y2="28" stroke="#52675d" stroke-opacity=".78" stroke-width="1.4" transform="rotate(306 233 233)"/>
<line x1="233" y1="20" x2="233" y2="28" stroke="#52675d" stroke-opacity=".78" stroke-width="1.4" transform="rotate(312 233 233)"/>
<line x1="233" y1="20" x2="233" y2="28" stroke="#52675d" stroke-opacity=".78" stroke-width="1.4" transform="rotate(318 233 233)"/>
<line x1="233" y1="20" x2="233" y2="28" stroke="#52675d" stroke-opacity=".78" stroke-width="1.4" transform="rotate(324 233 233)"/>
<line x1="233" y1="17" x2="233" y2="30" stroke="#738d80" stroke-opacity=".85" stroke-width="2" transform="rotate(330 233 233)"/>
<line x1="233" y1="20" x2="233" y2="28" stroke="#52675d" stroke-opacity=".78" stroke-width="1.4" transform="rotate(336 233 233)"/>
<line x1="233" y1="20" x2="233" y2="28" stroke="#52675d" stroke-opacity=".78" stroke-width="1.4" transform="rotate(342 233 233)"/>
<line x1="233" y1="20" x2="233" y2="28" stroke="#52675d" stroke-opacity=".78" stroke-width="1.4" transform="rotate(348 233 233)"/>
<line x1="233" y1="20" x2="233" y2="28" stroke="#52675d" stroke-opacity=".78" stroke-width="1.4" transform="rotate(354 233 233)"/></g>
<!-- 玄甲龟背纹：低对比度甲片从中央主穴向八穴方向展开。 -->
<g fill="none" stroke="#63e0ac" stroke-width="1">
  <path d="M233 172 C289 172 333 207 337 255 C341 306 294 346 233 350 C172 346 125 306 129 255 C133 207 177 172 233 172Z" stroke-opacity=".18"/>
  <path d="M233 184 L283 210 L283 269 L233 303 L183 269 L183 210Z" fill="#63e0ac" fill-opacity=".025" stroke-opacity=".25"/>
  <path d="M233 184 L201 172 L169 190 L183 210" stroke-opacity=".16"/>
  <path d="M233 184 L265 172 L297 190 L283 210" stroke-opacity=".16"/>
  <path d="M183 210 L145 218 L129 255 L158 266 L183 269" stroke-opacity=".16"/>
  <path d="M283 210 L321 218 L337 255 L308 266 L283 269" stroke-opacity=".16"/>
  <path d="M183 269 L158 266 L150 302 L184 328 L209 295 L233 303" stroke-opacity=".16"/>
  <path d="M283 269 L308 266 L316 302 L282 328 L257 295 L233 303" stroke-opacity=".16"/>
  <path d="M184 328 L207 346 L233 350 L259 346 L282 328 L257 295" stroke-opacity=".16"/>
  <path d="M233 184 L233 303" stroke-opacity=".08"/>
  <path d="M155 249 C181 238 202 237 233 239 C264 237 285 238 311 249" stroke-opacity=".06"/>
  <path d="M183 210 L233 239 L283 210 M183 269 L233 239 L283 269" stroke-opacity=".08"/>
</g>
<line x1="140" y1="177" x2="326" y2="177" stroke="url(#divider)" stroke-width="1"/>
<rect x="155" y="323" width="156" height="38" rx="19" fill="#10291f" stroke="#63e0ac" stroke-opacity=".38"/>
</svg>
